<!-- Generator: Adobe Illustrator 17.0.0, SVG Export Plug-In  -->
<svg version="1.1"
	 xmlns="http://www.w3.org/2000/svg" xmlns:xlink="http://www.w3.org/1999/xlink" xmlns:a="http://ns.adobe.com/AdobeSVGViewerExtensions/3.0/"
	 x="0px" y="0px" width="73.646px" height="58.445px" viewBox="0 0 73.646 58.445" enable-background="new 0 0 73.646 58.445"
	 xml:space="preserve">
<defs>
</defs>
<g>
	<path fill="none" stroke="#FFFFFF" stroke-width="4" stroke-miterlimit="10" d="M70.997,50.394L40.071,3.744
		C39.349,2.655,38.13,2,36.823,2s-2.526,0.655-3.248,1.744L2.649,50.394c-0.793,1.197-0.864,2.732-0.185,3.997
		c0.679,1.265,1.998,2.054,3.434,2.054h61.851c1.435,0,2.755-0.789,3.434-2.054C71.861,53.126,71.79,51.591,70.997,50.394z"/>
	<g>
		<path fill="#FFFFFF" d="M38.964,26.156l-0.971,14.767h-2.226L34.72,26.156v-6.185h4.244V26.156z M38.773,47.868h-3.901v-3.901
			h3.901V47.868z"/>
	</g>
</g>
</svg>
