<?xml version="1.0" encoding="utf-8"?>
<!-- Generator: Adobe Illustrator 12.0.0, SVG Export Plug-In  -->
<!DOCTYPE svg PUBLIC "-//W3C//DTD SVG 1.1//EN" "http://www.w3.org/Graphics/SVG/1.1/DTD/svg11.dtd" [
	<!ENTITY ns_flows "http://ns.adobe.com/Flows/1.0/">
	<!ENTITY ns_svg "http://www.w3.org/2000/svg">
	<!ENTITY ns_xlink "http://www.w3.org/1999/xlink">
]>
<svg  version="1.1" xmlns="&ns_svg;" xmlns:xlink="&ns_xlink;" xmlns:a="http://ns.adobe.com/AdobeSVGViewerExtensions/3.0/"
	 width="558" height="263" viewBox="0 0 558 263" enable-background="new 0 0 558 263" xml:space="preserve">
<defs>
</defs>
<rect fill="#FFFFFF" width="558" height="263"/>
<path fill="none" stroke="#006D7F" stroke-width="1.3" d="M22.667,256.333c0,0,68.275,1.548,117.667-62
	C192.667,127,232.667,17,278,17c44,0,76.334,85.334,128.334,163s130,76.666,130,76.666"/>
<rect x="278.627" y="55.101" fill="#2478FF" width="1" height="5.029"/>
<rect x="278.627" y="64.276" fill="#2478FF" width="1" height="5.029"/>
<rect x="278.627" y="73.452" fill="#2478FF" width="1" height="5.029"/>
<rect x="278.627" y="82.629" fill="#2478FF" width="1" height="5.028"/>
<rect x="278.627" y="18.397" fill="#2478FF" width="1" height="5.028"/>
<rect x="278.627" y="27.573" fill="#2478FF" width="1" height="5.029"/>
<rect x="278.627" y="36.749" fill="#2478FF" width="1" height="5.029"/>
<rect x="278.627" y="45.925" fill="#2478FF" width="1" height="5.029"/>
<rect x="278.627" y="128.508" fill="#2478FF" width="1" height="5.029"/>
<rect x="278.627" y="137.684" fill="#2478FF" width="1" height="5.03"/>
<rect x="278.627" y="146.859" fill="#2478FF" width="1" height="5.03"/>
<rect x="278.627" y="156.035" fill="#2478FF" width="1" height="5.03"/>
<rect x="278.627" y="91.805" fill="#2478FF" width="1" height="5.028"/>
<rect x="278.627" y="100.98" fill="#2478FF" width="1" height="5.028"/>
<rect x="278.627" y="110.156" fill="#2478FF" width="1" height="5.029"/>
<rect x="278.627" y="119.332" fill="#2478FF" width="1" height="5.029"/>
<rect x="278.627" y="201.915" fill="#2478FF" width="1" height="5.029"/>
<rect x="278.627" y="211.091" fill="#2478FF" width="1" height="5.029"/>
<rect x="278.627" y="220.267" fill="#2478FF" width="1" height="5.03"/>
<rect x="278.627" y="229.442" fill="#2478FF" width="1" height="5.03"/>
<rect x="278.627" y="165.212" fill="#2478FF" width="1" height="5.029"/>
<rect x="278.627" y="174.388" fill="#2478FF" width="1" height="5.029"/>
<rect x="278.627" y="183.563" fill="#2478FF" width="1" height="5.028"/>
<rect x="278.627" y="192.739" fill="#2478FF" width="1" height="5.029"/>
<rect x="278.627" y="238.619" fill="#2478FF" width="1" height="5.03"/>
<rect x="278.627" y="247.795" fill="#2478FF" width="1" height="5.029"/>
<rect x="278.627" y="256.971" fill="#2478FF" width="1" height="5.029"/>
<rect x="222.378" y="64.276" fill="#2478FF" width="1" height="5.029"/>
<rect x="222.378" y="73.452" fill="#2478FF" width="1" height="5.029"/>
<rect x="222.378" y="82.629" fill="#2478FF" width="1" height="5.028"/>
<rect x="222.378" y="128.508" fill="#2478FF" width="1" height="5.029"/>
<rect x="222.378" y="137.684" fill="#2478FF" width="1" height="5.03"/>
<rect x="222.378" y="146.859" fill="#2478FF" width="1" height="5.03"/>
<rect x="222.378" y="156.035" fill="#2478FF" width="1" height="5.03"/>
<rect x="222.378" y="91.805" fill="#2478FF" width="1" height="5.028"/>
<rect x="222.378" y="100.98" fill="#2478FF" width="1" height="5.028"/>
<rect x="222.378" y="110.156" fill="#2478FF" width="1" height="5.029"/>
<rect x="222.378" y="119.332" fill="#2478FF" width="1" height="5.029"/>
<rect x="222.378" y="201.915" fill="#2478FF" width="1" height="5.029"/>
<rect x="222.378" y="211.091" fill="#2478FF" width="1" height="5.029"/>
<rect x="222.378" y="220.267" fill="#2478FF" width="1" height="5.03"/>
<rect x="222.378" y="229.442" fill="#2478FF" width="1" height="5.03"/>
<rect x="222.378" y="165.212" fill="#2478FF" width="1" height="5.029"/>
<rect x="222.378" y="174.388" fill="#2478FF" width="1" height="5.029"/>
<rect x="222.378" y="183.563" fill="#2478FF" width="1" height="5.028"/>
<rect x="222.378" y="192.739" fill="#2478FF" width="1" height="5.029"/>
<rect x="222.378" y="238.619" fill="#2478FF" width="1" height="5.03"/>
<rect x="222.378" y="247.795" fill="#2478FF" width="1" height="5.029"/>
<rect x="222.378" y="256.971" fill="#2478FF" width="1" height="5.029"/>
<path fill="#2478FF" d="M223.083,57c-2.481,0-4.5,2.019-4.5,4.5s2.019,4.5,4.5,4.5s4.5-2.019,4.5-4.5S225.565,57,223.083,57z"/>
<path fill="#2478FF" d="M279,12.333c-2.481,0-4.5,2.019-4.5,4.5s2.019,4.5,4.5,4.5s4.5-2.019,4.5-4.5S281.481,12.333,279,12.333z"/>
<path fill="#2478FF" d="M335.5,57c-2.481,0-4.5,2.019-4.5,4.5s2.019,4.5,4.5,4.5s4.5-2.019,4.5-4.5S337.981,57,335.5,57z"/>
<rect x="334.795" y="64.276" fill="#2478FF" width="1" height="5.029"/>
<rect x="334.795" y="73.452" fill="#2478FF" width="1" height="5.029"/>
<rect x="334.795" y="82.629" fill="#2478FF" width="1" height="5.028"/>
<rect x="334.795" y="128.508" fill="#2478FF" width="1" height="5.029"/>
<rect x="334.795" y="137.684" fill="#2478FF" width="1" height="5.03"/>
<rect x="334.795" y="146.859" fill="#2478FF" width="1" height="5.03"/>
<rect x="334.795" y="156.035" fill="#2478FF" width="1" height="5.03"/>
<rect x="334.795" y="91.805" fill="#2478FF" width="1" height="5.028"/>
<rect x="334.795" y="100.98" fill="#2478FF" width="1" height="5.028"/>
<rect x="334.795" y="110.156" fill="#2478FF" width="1" height="5.029"/>
<rect x="334.795" y="119.332" fill="#2478FF" width="1" height="5.029"/>
<rect x="334.795" y="201.915" fill="#2478FF" width="1" height="5.029"/>
<rect x="334.795" y="211.091" fill="#2478FF" width="1" height="5.029"/>
<rect x="334.795" y="220.267" fill="#2478FF" width="1" height="5.03"/>
<rect x="334.795" y="229.442" fill="#2478FF" width="1" height="5.03"/>
<rect x="334.795" y="165.212" fill="#2478FF" width="1" height="5.029"/>
<rect x="334.795" y="174.388" fill="#2478FF" width="1" height="5.029"/>
<rect x="334.795" y="183.563" fill="#2478FF" width="1" height="5.028"/>
<rect x="334.795" y="192.739" fill="#2478FF" width="1" height="5.029"/>
<rect x="334.795" y="238.619" fill="#2478FF" width="1" height="5.03"/>
<rect x="334.795" y="247.795" fill="#2478FF" width="1" height="5.029"/>
<rect x="334.795" y="256.971" fill="#2478FF" width="1" height="5.029"/>
</svg>
